# xmcd
#
# Track frame offsets:
#	150
#	14371
#	27122
#	46099
#	59962
#	87133
#
# Disc length: 1392 seconds
#
# Revision: 1
# Processed by: cddbd v1.5.2PL0 Copyright (c) Steve Scherf et al.
# Submitted via: audiograbber 1.83.01
#
DISCID=44056e06
DTITLE=James, Merrily - Words for everything
DYEAR=2010
DGENRE=Soul
TTITLE0=Get up, go out
TTITLE1=Braver than blue
TTITLE2=Street with no Name
TTITLE3=Long, long Time
TTITLE4=Dust of their Stampede
TTITLE5=Song for Sanna
EXTD=
EXTT0=
EXTT1=
EXTT2=
EXTT3=
EXTT4=
EXTT5=
PLAYORDER=
